<svg width="12" height="8" viewBox="0 0 12 8" fill="none" xmlns="http://www.w3.org/2000/svg">
<path d="M6.65625 0.515625L6.69141 0.515625C6.62109 0.445312 6.51563 0.410156 6.375 0.410156C6.26953 0.410156 6.16406 0.445312 6.05859 0.515624L0.855469 5.68359C0.785157 5.75391 0.750001 5.85937 0.750001 5.96484C0.750001 6.07031 0.785157 6.17578 0.855469 6.28125L1.55859 6.98437C1.66406 7.05469 1.76953 7.08984 1.875 7.08984C2.01563 7.08984 2.08594 7.05469 2.15625 6.98437L6.375 2.80078L10.5938 6.98437C10.6641 7.05469 10.7695 7.08984 10.875 7.08984C11.0156 7.08984 11.1211 7.05469 11.1914 6.98437L11.8945 6.28125C11.9648 6.17578 12 6.07031 12 5.96484C12 5.85938 11.9648 5.75391 11.8594 5.68359L6.65625 0.515625Z" fill="#6D727A"/>
</svg>
