<svg width="20" height="20" viewBox="0 0 20 20" fill="none" xmlns="http://www.w3.org/2000/svg">
<g clip-path="url(#clip0)">
<path d="M11.7679 8.85726C12.7443 9.83361 12.7443 11.4166 11.7679 12.3929C10.7916 13.3693 9.20861 13.3693 8.23226 12.3929C7.25591 11.4166 7.25591 9.83361 8.23226 8.85726C9.20861 7.88091 10.7916 7.88091 11.7679 8.85726Z" fill="white"/>
<path d="M17.5 3.75009H15.7726L14.522 1.25H5.47686L4.22741 3.75132L2.5025 3.75439C1.12735 3.75684 0.00790247 4.87748 0.00671505 6.25324L0 16.2499C0 17.6287 1.12125 18.7506 2.50009 18.7506H17.5C18.8788 18.7506 20 17.6293 20 16.2505V6.25013C20 4.87134 18.8787 3.75009 17.5 3.75009ZM9.99969 15.6254C7.24263 15.6254 4.99952 13.3823 4.99952 10.6253C4.99952 7.86822 7.24263 5.6251 9.99969 5.6251C12.7568 5.6251 14.9999 7.86822 14.9999 10.6253C14.9999 13.3823 12.7568 15.6254 9.99969 15.6254Z" fill="white"/>
</g>
<defs>
<clipPath id="clip0">
<rect width="20" height="20" fill="white"/>
</clipPath>
</defs>
</svg>
