<svg width="60" height="60" viewBox="0 0 60 60" fill="none" xmlns="http://www.w3.org/2000/svg">
<path d="M44.3137 50.4297L41.5762 55.825L43.2477 56.6744L45.7677 51.7056L56.4374 50.0303C56.5592 50.0111 56.6759 49.9682 56.781 49.9038C56.8862 49.8395 56.9775 49.755 57.05 49.6553C57.1224 49.5556 57.1745 49.4426 57.2032 49.3228C57.232 49.2029 57.2368 49.0786 57.2174 48.9569L55.5205 38.2919L57.5268 36.2884L56.2021 34.9609L53.8584 37.3047C53.7535 37.4094 53.6749 37.5375 53.6291 37.6785C53.5833 37.8194 53.5716 37.9693 53.5949 38.1156L55.2187 48.3241L44.9999 49.9281C44.8541 49.9518 44.7159 50.0095 44.5967 50.0967C44.4774 50.1838 44.3805 50.2979 44.3137 50.4297Z" fill="#138A07"/>
<path d="M5.58907 16.7277L4.78189 11.6755L15.0006 10.0714C15.1471 10.0484 15.286 9.99087 15.406 9.90368C15.5259 9.81649 15.6235 9.70209 15.6906 9.56988L18.9006 3.23707L17.2281 2.3877L14.2281 8.29394L3.56314 9.96925C3.44139 9.98843 3.32463 10.0314 3.21952 10.0958C3.1144 10.1601 3.02301 10.2445 2.95057 10.3442C2.87812 10.4439 2.82604 10.5569 2.79731 10.6768C2.76858 10.7966 2.76377 10.921 2.78314 11.0427L3.73376 17.0221L5.58907 16.7277Z" fill="#138A07"/>
<path d="M4.0332 18.9062L5.88497 18.612L6.1829 20.4869L4.33114 20.7812L4.0332 18.9062Z" fill="#138A07"/>
<path d="M51.5144 23.0086L52.9207 14.1642C52.94 14.0424 52.9352 13.918 52.9064 13.7981C52.8776 13.6782 52.8254 13.5652 52.7529 13.4655C52.6804 13.3658 52.5889 13.2813 52.4836 13.217C52.3784 13.1527 52.2616 13.1098 52.1397 13.0908L43.2916 11.7005L39.2388 3.71202C39.1832 3.60181 39.1064 3.50367 39.0127 3.42323C38.9191 3.34279 38.8105 3.28163 38.6932 3.24327C38.4559 3.16743 38.1983 3.18798 37.976 3.30046L29.9997 7.38327L22.0235 3.3014C21.9136 3.24524 21.7938 3.21132 21.6708 3.20157C21.5478 3.19183 21.4242 3.20645 21.3068 3.24459C21.1895 3.28274 21.0809 3.34366 20.9872 3.42388C20.8934 3.50409 20.8165 3.60201 20.7607 3.71202L16.7078 11.6995L7.85879 13.0898C7.73704 13.109 7.62028 13.152 7.51517 13.2163C7.41005 13.2807 7.31866 13.3651 7.24621 13.4648C7.17377 13.5645 7.12169 13.6775 7.09296 13.7974C7.06423 13.9172 7.05941 14.0416 7.07879 14.1633L8.48504 23.0076L2.14847 29.3358C2.06117 29.4228 1.9919 29.5263 1.94464 29.6402C1.89737 29.7541 1.87305 29.8762 1.87305 29.9995C1.87305 30.1228 1.89737 30.2449 1.94464 30.3588C1.9919 30.4727 2.06117 30.5762 2.14847 30.6633L8.4841 36.9904L7.07785 45.8348C7.05849 45.9566 7.06334 46.081 7.09213 46.2009C7.12091 46.3208 7.17307 46.4338 7.24561 46.5335C7.31816 46.6333 7.40966 46.7177 7.51487 46.782C7.62009 46.8463 7.73696 46.8892 7.85879 46.9082L16.7069 48.2986L20.7607 56.287C20.8163 56.3972 20.8931 56.4953 20.9867 56.5758C21.0804 56.6562 21.189 56.7174 21.3063 56.7557C21.4 56.7855 21.4977 56.8007 21.596 56.8007C21.7445 56.8007 21.891 56.7657 22.0235 56.6986L29.9997 52.6157L37.976 56.6976C38.0858 56.7538 38.2057 56.7877 38.3286 56.7974C38.4516 56.8072 38.5753 56.7926 38.6926 56.7544C38.8099 56.7163 38.9186 56.6553 39.0123 56.5751C39.106 56.4949 39.183 56.397 39.2388 56.287L43.2916 48.2995L52.1407 46.9092C52.2624 46.89 52.3792 46.847 52.4843 46.7827C52.5894 46.7183 52.6808 46.6339 52.7532 46.5342C52.8257 46.4345 52.8778 46.3215 52.9065 46.2016C52.9352 46.0818 52.94 45.9575 52.9207 45.8357L51.5144 36.9914L57.851 30.6633C57.9383 30.5762 58.0076 30.4727 58.0548 30.3588C58.1021 30.2449 58.1264 30.1228 58.1264 29.9995C58.1264 29.8762 58.1021 29.7541 58.0548 29.6402C58.0076 29.5263 57.9383 29.4228 57.851 29.3358L51.5144 23.0086ZM49.8504 35.9995C49.7455 36.1042 49.6669 36.2323 49.6211 36.3733C49.5753 36.5143 49.5636 36.6641 49.5869 36.8104L50.921 45.1992L42.5266 46.5182C42.3801 46.5413 42.2412 46.5988 42.1213 46.686C42.0013 46.7732 41.9037 46.8876 41.8366 47.0198L37.9929 54.5967L30.4272 50.7248C30.2949 50.657 30.1484 50.6217 29.9997 50.6217C29.8511 50.6217 29.7045 50.657 29.5722 50.7248L22.0066 54.5967L18.1628 47.0198C18.0956 46.8875 17.9979 46.773 17.8778 46.6858C17.7577 46.5986 17.6186 46.5412 17.4719 46.5182L9.07754 45.202L10.4125 36.8133C10.4359 36.6669 10.4241 36.5171 10.3783 36.3761C10.3326 36.2351 10.254 36.107 10.1491 36.0023L4.13879 29.9995L10.1491 23.9995C10.254 23.8948 10.3326 23.7667 10.3783 23.6257C10.4241 23.4848 10.4359 23.3349 10.4125 23.1886L9.07847 14.797L17.4728 13.478C17.6193 13.4549 17.7583 13.3974 17.8782 13.3102C17.9981 13.223 18.0957 13.1086 18.1628 12.9764L22.0066 5.39952L29.5722 9.27139C29.7045 9.33918 29.8511 9.37454 29.9997 9.37454C30.1484 9.37454 30.2949 9.33918 30.4272 9.27139L37.9929 5.39952L41.8366 12.9764C41.9038 13.1087 42.0015 13.2232 42.1217 13.3104C42.2418 13.3976 42.3809 13.455 42.5275 13.478L50.9219 14.797L49.5869 23.1858C49.5636 23.3321 49.5753 23.4819 49.6211 23.6229C49.6669 23.7639 49.7455 23.892 49.8504 23.9967L55.8607 29.9995L49.8504 35.9995Z" fill="#138A07"/>
<path d="M17.8125 33.75H19.6875V35.625H17.8125V33.75Z" fill="#138A07"/>
<path d="M42.1875 22.5H33.75V17.8125C33.7485 16.5698 33.2542 15.3783 32.3754 14.4996C31.4967 13.6208 30.3052 13.1265 29.0625 13.125C28.8535 13.125 28.6505 13.1948 28.4857 13.3234C28.321 13.452 28.2039 13.632 28.1531 13.8347L25.875 22.9547C25.7735 23.3606 25.5392 23.721 25.2093 23.9784C24.8793 24.2357 24.4728 24.3754 24.0544 24.375H23.4375V23.4375C23.4375 23.1889 23.3387 22.9504 23.1629 22.7746C22.9871 22.5988 22.7486 22.5 22.5 22.5H15C14.7514 22.5 14.5129 22.5988 14.3371 22.7746C14.1613 22.9504 14.0625 23.1889 14.0625 23.4375V38.4375C14.0625 38.6861 14.1613 38.9246 14.3371 39.1004C14.5129 39.2762 14.7514 39.375 15 39.375H22.5C22.7486 39.375 22.9871 39.2762 23.1629 39.1004C23.3387 38.9246 23.4375 38.6861 23.4375 38.4375V37.5H26.0316C28.5763 38.7307 31.3658 39.3716 34.1925 39.375H38.4375C39.1834 39.375 39.8988 39.0787 40.4262 38.5512C40.9537 38.0238 41.25 37.3084 41.25 36.5625C41.2472 36.078 41.118 35.6026 40.875 35.1834C41.433 34.836 41.8502 34.3024 42.0528 33.6771C42.2554 33.0518 42.2304 32.3749 41.9822 31.7662C42.3971 31.659 42.7816 31.4572 43.1055 31.1765C43.4294 30.8958 43.6839 30.544 43.8491 30.1485C44.0143 29.753 44.0857 29.3247 44.0576 28.897C44.0296 28.4693 43.9029 28.054 43.6875 27.6834C44.2035 27.3592 44.6 26.8757 44.817 26.3062C45.034 25.7367 45.0597 25.1121 44.8903 24.5266C44.7209 23.9412 44.3655 23.4268 43.8779 23.0612C43.3903 22.6956 42.7969 22.4986 42.1875 22.5ZM21.5625 37.5H15.9375V24.375H21.5625V37.5ZM41.25 30H36.5625V31.875H39.375C39.6236 31.875 39.8621 31.9738 40.0379 32.1496C40.2137 32.3254 40.3125 32.5639 40.3125 32.8125C40.3125 33.0611 40.2137 33.2996 40.0379 33.4754C39.8621 33.6512 39.6236 33.75 39.375 33.75H35.625V35.625H38.4375C38.6861 35.625 38.9246 35.7238 39.1004 35.8996C39.2762 36.0754 39.375 36.3139 39.375 36.5625C39.375 36.8111 39.2762 37.0496 39.1004 37.2254C38.9246 37.4012 38.6861 37.5 38.4375 37.5H34.1925C31.5807 37.4957 29.0055 36.886 26.6691 35.7187C26.5385 35.6555 26.3951 35.6234 26.25 35.625H23.4375V26.25H24.0544C24.8908 26.2501 25.7032 25.9705 26.3624 25.4558C27.0217 24.9411 27.49 24.2208 27.6928 23.4094L29.7722 15.0938C30.374 15.2507 30.9067 15.6026 31.2872 16.0945C31.6677 16.5865 31.8744 17.1906 31.875 17.8125V23.4375C31.875 23.6861 31.9738 23.9246 32.1496 24.1004C32.3254 24.2762 32.5639 24.375 32.8125 24.375H42.1875C42.4361 24.375 42.6746 24.4738 42.8504 24.6496C43.0262 24.8254 43.125 25.0639 43.125 25.3125C43.125 25.5611 43.0262 25.7996 42.8504 25.9754C42.6746 26.1512 42.4361 26.25 42.1875 26.25H37.5V28.125H41.25C41.4986 28.125 41.7371 28.2238 41.9129 28.3996C42.0887 28.5754 42.1875 28.8139 42.1875 29.0625C42.1875 29.3111 42.0887 29.5496 41.9129 29.7254C41.7371 29.9012 41.4986 30 41.25 30Z" fill="#138A07"/>
<path d="M26.25 42.1875H33.75V44.0625H26.25V42.1875Z" fill="#138A07"/>
<path d="M23.4375 45.9375H36.5625V47.8125H23.4375V45.9375Z" fill="#138A07"/>
</svg>
