<svg width="58" height="58" viewBox="0 0 58 58" fill="none" xmlns="http://www.w3.org/2000/svg">
<path d="M2.75 55.25H0.875V57.125H2.75V55.25Z" fill="#138A07"/>
<path d="M51.5 48.6875C51.5 48.4389 51.4012 48.2004 51.2254 48.0246C51.0496 47.8488 50.8111 47.75 50.5625 47.75H32.75C32.5014 47.7501 32.263 47.8489 32.0872 48.0247L29 51.1119L25.9128 48.0247C25.737 47.8489 25.4986 47.7501 25.25 47.75H7.4375C7.18886 47.75 6.9504 47.8488 6.77459 48.0246C6.59877 48.2004 6.5 48.4389 6.5 48.6875V55.25H4.625V57.125H57.125V55.25H51.5V48.6875ZM8.375 55.25V49.625H24.8619L28.3372 53.1003C28.513 53.2761 28.7514 53.3748 29 53.3748C29.2486 53.3748 29.487 53.2761 29.6628 53.1003L33.1381 49.625H49.625V55.25H8.375Z" fill="#138A07"/>
<path d="M43.0625 4.625H38.375C38.375 3.63044 37.9799 2.67661 37.2766 1.97335C36.5734 1.27009 35.6196 0.875 34.625 0.875H23.375C22.3804 0.875 21.4266 1.27009 20.7234 1.97335C20.0201 2.67661 19.625 3.63044 19.625 4.625H14.9375C14.6889 4.625 14.4504 4.72377 14.2746 4.89959C14.0988 5.0754 14 5.31386 14 5.5625V6.5H5.5625C4.81658 6.5 4.10121 6.79632 3.57376 7.32376C3.04632 7.85121 2.75 8.56658 2.75 9.3125C2.75 10.0584 3.04632 10.7738 3.57376 11.3012C4.10121 11.8287 4.81658 12.125 5.5625 12.125H14V13.0625C14 13.3111 14.0988 13.5496 14.2746 13.7254C14.4504 13.9012 14.6889 14 14.9375 14H19.625V14.9375C19.6251 15.1861 19.7239 15.4245 19.8997 15.6003L23.6497 19.3503C23.8255 19.5261 24.0639 19.6249 24.3125 19.625V32.75C24.3126 32.9986 24.4114 33.237 24.5872 33.4128L26.1875 35.0131V45.875C26.1876 46.1236 26.2864 46.362 26.4622 46.5378L28.3372 48.4128C28.513 48.5886 28.7514 48.6873 29 48.6873C29.2486 48.6873 29.487 48.5886 29.6628 48.4128L31.5378 46.5378C31.7136 46.362 31.8124 46.1236 31.8125 45.875V35.0131L33.4128 33.4128C33.5886 33.237 33.6874 32.9986 33.6875 32.75V19.625C33.9361 19.6249 34.1745 19.5261 34.3503 19.3503L38.1003 15.6003C38.2761 15.4245 38.3749 15.1861 38.375 14.9375V14H39.3125V34.625C39.3125 35.3709 39.6088 36.0863 40.1363 36.6137C40.6637 37.1412 41.3791 37.4375 42.125 37.4375C42.8709 37.4375 43.5863 37.1412 44.1137 36.6137C44.6412 36.0863 44.9375 35.3709 44.9375 34.625V21.5C44.9375 21.2514 45.0363 21.0129 45.2121 20.8371C45.3879 20.6613 45.6264 20.5625 45.875 20.5625C46.1236 20.5625 46.3621 20.6613 46.5379 20.8371C46.7137 21.0129 46.8125 21.2514 46.8125 21.5V29H48.6875V21.5C48.6875 20.7541 48.3912 20.0387 47.8637 19.5113C47.3363 18.9838 46.6209 18.6875 45.875 18.6875C45.1291 18.6875 44.4137 18.9838 43.8863 19.5113C43.3588 20.0387 43.0625 20.7541 43.0625 21.5V34.625C43.0625 34.8736 42.9637 35.1121 42.7879 35.2879C42.6121 35.4637 42.3736 35.5625 42.125 35.5625C41.8764 35.5625 41.6379 35.4637 41.4621 35.2879C41.2863 35.1121 41.1875 34.8736 41.1875 34.625V14H43.0625C43.3111 14 43.5496 13.9012 43.7254 13.7254C43.9012 13.5496 44 13.3111 44 13.0625V12.125H52.4375C53.1834 12.125 53.8988 11.8287 54.4262 11.3012C54.9537 10.7738 55.25 10.0584 55.25 9.3125C55.25 8.56658 54.9537 7.85121 54.4262 7.32376C53.8988 6.79632 53.1834 6.5 52.4375 6.5H44V5.5625C44 5.31386 43.9012 5.0754 43.7254 4.89959C43.5496 4.72377 43.3111 4.625 43.0625 4.625ZM23.375 2.75H34.625C35.1223 2.75 35.5992 2.94754 35.9508 3.29917C36.3025 3.65081 36.5 4.12772 36.5 4.625H33.6875C33.5125 4.62404 33.3407 4.6721 33.1916 4.76372C33.0425 4.85534 32.922 4.98688 32.8437 5.14344L31.2331 8.375H26.7669L25.1562 5.14344C25.078 4.98688 24.9575 4.85534 24.8084 4.76372C24.6593 4.6721 24.4875 4.62404 24.3125 4.625H21.5C21.5 4.12772 21.6975 3.65081 22.0492 3.29917C22.4008 2.94754 22.8777 2.75 23.375 2.75ZM5.5625 10.25C5.31386 10.25 5.0754 10.1512 4.89959 9.97541C4.72377 9.7996 4.625 9.56114 4.625 9.3125C4.625 9.06386 4.72377 8.8254 4.89959 8.64959C5.0754 8.47377 5.31386 8.375 5.5625 8.375H14V10.25H5.5625ZM15.875 12.125V6.5H19.625V12.125H15.875ZM29.9375 40.7994L28.0625 42.6744V40.6381L29.9375 38.7631V40.7994ZM29.9375 36.1119L28.0625 37.9869V35.5625H29.9375V36.1119ZM29 46.4244L28.0625 45.4869V45.3256L29.9375 43.4506V45.4869L29 46.4244ZM31.8125 32.3619L30.4869 33.6875H27.5131L26.1875 32.3619V28.0625H28.0625V29.9375H29.9375V28.0625H31.8125V32.3619ZM31.8125 26.1875H26.1875V19.625H31.8125V26.1875ZM36.5 14.5494L33.2994 17.75H24.7006L21.5 14.5494V6.5H23.7331L25.3484 9.73156C25.4263 9.88741 25.5461 10.0185 25.6943 10.11C25.8425 10.2016 26.0133 10.2501 26.1875 10.25H31.8125C31.9875 10.251 32.1593 10.2029 32.3084 10.1113C32.4575 10.0197 32.578 9.88812 32.6563 9.73156L34.2669 6.5H36.5V14.5494ZM42.125 12.125H38.375V6.5H42.125V12.125ZM52.4375 8.375C52.6861 8.375 52.9246 8.47377 53.1004 8.64959C53.2762 8.8254 53.375 9.06386 53.375 9.3125C53.375 9.56114 53.2762 9.7996 53.1004 9.97541C52.9246 10.1512 52.6861 10.25 52.4375 10.25H44V8.375H52.4375Z" fill="#138A07"/>
<path d="M26.1875 12.125H24.3125V14H26.1875V12.125Z" fill="#138A07"/>
<path d="M29.9375 12.125H28.0625V14H29.9375V12.125Z" fill="#138A07"/>
<path d="M33.6875 12.125H31.8125V14H33.6875V12.125Z" fill="#138A07"/>
<path d="M48.6875 30.875H46.8125V32.75H48.6875V30.875Z" fill="#138A07"/>
<path d="M35.5625 44H33.6875V45.875H35.5625V44Z" fill="#138A07"/>
<path d="M41.1875 43.0625H39.3125V44.9375H41.1875V43.0625Z" fill="#138A07"/>
<path d="M24.3125 44H22.4375V45.875H24.3125V44Z" fill="#138A07"/>
<path d="M37.4375 38.375H35.5625V40.25H37.4375V38.375Z" fill="#138A07"/>
<path d="M23.375 37.4375H21.5V39.3125H23.375V37.4375Z" fill="#138A07"/>
<path d="M18.6875 42.125H16.8125V44H18.6875V42.125Z" fill="#138A07"/>
</svg>
