<svg width="50" height="50" viewBox="0 0 50 50" fill="none" xmlns="http://www.w3.org/2000/svg">
<path d="M46.4215 29.5975C46.4215 33.8818 43.851 34.1878 43.3613 34.1878H5.73643L13.8306 26.0936L11.6732 23.9209L0.962547 34.6315C0.369255 35.2284 0.369255 36.1921 0.962547 36.789L11.6732 47.4996L13.8306 45.3422L5.73643 37.248H43.3613C45.4729 37.248 49.4817 35.7179 49.4817 29.5975V25.0073H46.4215V29.5975Z" fill="#138A07"/>
<path d="M3.58166 20.4174C3.58166 16.1331 6.15221 15.8271 6.64184 15.8271H44.2667L36.1726 23.9213L38.33 26.0787L49.0406 15.3681C49.6339 14.7712 49.6339 13.8075 49.0406 13.2106L38.33 2.5L36.1573 4.67273L44.2667 12.7669H6.64184C4.53032 12.7669 0.521484 14.297 0.521484 20.4174V25.0076H3.58166V20.4174Z" fill="#138A07"/>
<path d="M33.5 8.5625H31.625V10.4375H33.5V8.5625Z" fill="#138A07"/>
<path d="M18 41.875L19.875 41.875L19.875 40L18 40L18 41.875Z" fill="#138A07"/>
<path d="M32.5625 2H30.6875V3.875H32.5625V2Z" fill="#138A07"/>
<path d="M18.9375 48.4375L20.8125 48.4375L20.8125 46.5625L18.9375 46.5625L18.9375 48.4375Z" fill="#138A07"/>
<path d="M27.875 6.6875H26V8.5625H27.875V6.6875Z" fill="#138A07"/>
<path d="M23.625 43.75L25.5 43.75L25.5 41.875L23.625 41.875L23.625 43.75Z" fill="#138A07"/>
</svg>
