<svg width="54" height="60" viewBox="0 0 54 60" fill="none" xmlns="http://www.w3.org/2000/svg">
<path d="M33 11C33 9.81331 32.6481 8.65328 31.9888 7.66658C31.3295 6.67989 30.3925 5.91085 29.2961 5.45673C28.1997 5.0026 26.9933 4.88378 25.8295 5.11529C24.6656 5.3468 23.5965 5.91825 22.7574 6.75736C21.9182 7.59648 21.3468 8.66557 21.1153 9.82946C20.8838 10.9933 21.0026 12.1997 21.4567 13.2961C21.9109 14.3925 22.6799 15.3295 23.6666 15.9888C24.6533 16.6481 25.8133 17 27 17C28.5908 16.9982 30.1158 16.3655 31.2407 15.2407C32.3655 14.1158 32.9982 12.5908 33 11ZM23 11C23 10.2089 23.2346 9.43552 23.6741 8.77772C24.1137 8.11993 24.7384 7.60723 25.4693 7.30448C26.2002 7.00173 27.0044 6.92252 27.7804 7.07686C28.5563 7.2312 29.269 7.61216 29.8284 8.17158C30.3878 8.73098 30.7688 9.44372 30.9231 10.2196C31.0775 10.9956 30.9983 11.7998 30.6955 12.5307C30.3928 13.2616 29.8801 13.8864 29.2223 14.3259C28.5645 14.7654 27.7911 15 27 15C25.9395 14.9988 24.9228 14.577 24.1729 13.8271C23.423 13.0772 23.0012 12.0605 23 11Z" fill="#138A07"/>
<path d="M26.4265 27.8193C26.5946 27.937 26.7948 28.0001 27 28.0001C27.2052 28.0001 27.4054 27.937 27.5735 27.8193C29.4727 26.4202 31.2104 24.8143 32.7546 23.0311C36.1861 19.0849 38 14.925 38 11C38 8.08263 36.8411 5.28473 34.7782 3.22183C32.7153 1.15893 29.9174 0 27 0C24.0826 0 21.2847 1.15893 19.2218 3.22183C17.1589 5.28473 16 8.08263 16 11C16 14.925 17.8139 19.0849 21.2454 23.0311C22.7896 24.8143 24.5273 26.4202 26.4265 27.8193ZM27 2C29.3861 2.00268 31.6738 2.95176 33.361 4.639C35.0483 6.32625 35.9973 8.61388 36 11C36 18.1551 29.0646 24.1283 27 25.7479C24.9323 24.1303 18 18.1689 18 11C18.0027 8.61388 18.9518 6.32625 20.639 4.639C22.3263 2.95176 24.6139 2.00268 27 2Z" fill="#138A07"/>
<path d="M13.7148 51.9482L14.3029 50.0363L16.3033 50.6514L15.7153 52.5634L13.7148 51.9482Z" fill="#138A07"/>
<path d="M17.7148 53.1748L18.3029 51.2627L20.3033 51.8779L19.7153 53.79L17.7148 53.1748Z" fill="#138A07"/>
<path d="M21.7168 54.4082L22.3048 52.4962L24.3052 53.1114L23.7172 55.0234L21.7168 54.4082Z" fill="#138A07"/>
<path d="M53.2942 23.0441L38.2942 18.4287L37.7059 20.3403L49.6001 23.9998L27 30.9536L4.4 23.9998L16.2938 20.3403L15.7055 18.4287L0.705501 23.0441C0.501184 23.1071 0.322425 23.2338 0.195452 23.4059C0.06848 23.5779 -2.10584e-05 23.786 4.85607e-09 23.9998V50.9999C3.63198e-06 51.2137 0.0685589 51.4219 0.195603 51.5939C0.322647 51.766 0.501489 51.8927 0.705876 51.9556L26.7059 59.9556C26.8976 60.0146 27.1025 60.0146 27.2942 59.9556L53.2942 51.9556C53.4986 51.8927 53.6774 51.766 53.8045 51.5939C53.9315 51.4219 54.0001 51.2137 54.0001 50.9999V23.9998C54.0001 23.786 53.9315 23.5778 53.8045 23.4058C53.6774 23.2337 53.4986 23.107 53.2942 23.0441ZM2 25.3538L26 32.7385V57.6459L2 50.2614V25.3538ZM28 57.6459V32.7385L52.0001 25.3538V50.2614L28 57.6459Z" fill="#138A07"/>
<path d="M39.7129 50.0576L41.7133 49.4425L42.3014 51.3544L40.3009 51.9696L39.7129 50.0576Z" fill="#138A07"/>
<path d="M43.7109 48.8311L45.7114 48.2159L46.2994 50.128L44.299 50.7431L43.7109 48.8311Z" fill="#138A07"/>
<path d="M47.7148 47.5967L49.7153 46.9815L50.3032 48.8935L48.3028 49.5087L47.7148 47.5967Z" fill="#138A07"/>
<path d="M19 40.3846C19.2652 40.3846 19.5196 40.2792 19.7071 40.0917C19.8947 39.9042 20 39.6498 20 39.3846V34.3846C20 34.1708 19.9315 33.9625 19.8044 33.7905C19.6774 33.6185 19.4985 33.4917 19.2941 33.4289L9.29413 30.3519C9.14455 30.3058 8.98626 30.2955 8.83198 30.3218C8.67771 30.3481 8.53176 30.4103 8.40587 30.5032C8.27999 30.5962 8.17768 30.7175 8.10719 30.8572C8.0367 30.9969 7.99998 31.1512 8 31.3077V36.3077C8 36.5216 8.06856 36.7298 8.1956 36.9018C8.32265 37.0738 8.50149 37.2006 8.70588 37.2635L18.7059 40.3405C18.8012 40.3697 18.9003 40.3846 19 40.3846ZM18 38.0306L10 35.5692V32.6617L18 35.1231V38.0306Z" fill="#138A07"/>
<path d="M46 36.3077V31.3077C46 31.1512 45.9633 30.9969 45.8928 30.8572C45.8223 30.7175 45.72 30.5962 45.5941 30.5032C45.4683 30.4103 45.3223 30.3481 45.168 30.3218C45.0138 30.2955 44.8555 30.3058 44.7059 30.3519L34.7059 33.4289C34.5015 33.4918 34.3226 33.6185 34.1956 33.7905C34.0686 33.9626 34 34.1708 34 34.3846V39.3846C34 39.5411 34.0367 39.6954 34.1072 39.8352C34.1777 39.9749 34.28 40.0961 34.4059 40.1891C34.5318 40.2821 34.6777 40.3442 34.832 40.3705C34.9863 40.3968 35.1445 40.3865 35.2941 40.3405L45.2941 37.2635C45.4985 37.2006 45.6774 37.0738 45.8044 36.9018C45.9315 36.7298 46 36.5216 46 36.3077ZM44 35.5692L36 38.0306V35.1231L44 32.6617V35.5692Z" fill="#138A07"/>
</svg>
