<svg width="20" height="20" viewBox="0 0 20 20" fill="none" xmlns="http://www.w3.org/2000/svg">
<path d="M19.6111 15.9032L17.3939 14.4249L15.4228 13.1112C15.0425 12.8581 14.5313 12.9411 14.2504 13.3015L13.0308 14.8694C12.7688 15.2097 12.2975 15.3074 11.9218 15.0994C11.0943 14.6391 10.1156 14.2057 7.95637 12.0436C5.7971 9.88157 5.36089 8.90572 4.90055 8.07815C4.69254 7.70245 4.79031 7.23117 5.13055 6.96922L6.69846 5.74958C7.05888 5.4688 7.14189 4.9576 6.88881 4.57717L5.61538 2.66684L4.09677 0.388902C3.83829 0.00117267 3.32088 -0.115232 2.92127 0.124413L1.16989 1.1751C0.696574 1.45397 0.348649 1.90428 0.198182 2.43267C-0.280758 4.17886 -0.377319 8.03088 5.79605 14.2042C11.9694 20.3776 15.8211 20.2807 17.5673 19.8018C18.0957 19.6513 18.546 19.3034 18.8248 18.8301L19.8755 17.0787C20.1152 16.6791 19.9988 16.1617 19.6111 15.9032Z" fill="#138A07"/>
</svg>
