<svg width="20" height="15" viewBox="0 0 20 15" fill="none" xmlns="http://www.w3.org/2000/svg">
<path d="M0.416966 1.21703C3.16189 3.54168 7.97837 7.63145 9.394 8.90664C9.58404 9.07875 9.78786 9.16625 9.99947 9.16625C10.2106 9.16625 10.4141 9.07957 10.6037 8.90828C12.0206 7.63184 16.837 3.54168 19.582 1.21703C19.7529 1.07258 19.779 0.818672 19.6406 0.64207C19.3208 0.233984 18.8439 0 18.3328 0H1.66615C1.15509 0 0.678177 0.233985 0.358372 0.64211C0.220013 0.818672 0.246067 1.07258 0.416966 1.21703Z" fill="#138A07"/>
<path d="M19.7586 2.47683C19.6109 2.40808 19.4371 2.43207 19.3142 2.53707C17.5165 4.0609 15.148 6.07426 13.3617 7.6107C13.2677 7.69129 13.2148 7.80969 13.2169 7.93379C13.2189 8.0575 13.2763 8.17426 13.3731 8.25156C15.0329 9.5809 17.5341 11.4095 19.3403 12.7092C19.4123 12.7612 19.4978 12.7877 19.5836 12.7877C19.6487 12.7877 19.7138 12.7727 19.7737 12.7417C19.9128 12.6705 20.0003 12.5273 20.0003 12.371V2.85484C20.0003 2.6925 19.9058 2.5448 19.7586 2.47683Z" fill="#138A07"/>
<path d="M0.66 12.7093C2.46664 11.4097 4.96828 9.58106 6.62762 8.25169C6.72445 8.17439 6.78184 8.05759 6.78387 7.93392C6.7859 7.80981 6.73301 7.69142 6.63902 7.61083C4.85269 6.07438 2.48371 4.06103 0.686055 2.5372C0.562344 2.4322 0.388203 2.40903 0.241719 2.47696C0.0944141 2.54493 0 2.69263 0 2.85497V12.3712C0 12.5274 0.0875 12.6707 0.226641 12.7419C0.286445 12.7728 0.351562 12.7879 0.41668 12.7879C0.502539 12.7879 0.587969 12.7614 0.66 12.7093Z" fill="#138A07"/>
<path d="M19.4884 13.8427C17.744 12.5947 14.5307 10.268 12.6126 8.71121C12.4563 8.58386 12.2301 8.58793 12.0763 8.72058C11.6999 9.04894 11.385 9.32566 11.1616 9.52664C10.4755 10.1459 9.52338 10.1459 8.83572 9.52582C8.61314 9.32523 8.29822 9.04769 7.92182 8.72054C7.76924 8.58707 7.5426 8.583 7.38592 8.71117C5.47428 10.2627 2.25732 12.5922 0.510097 13.8426C0.412832 13.9126 0.350175 14.0204 0.337988 14.1396C0.326191 14.2589 0.365644 14.3773 0.447441 14.4652C0.762832 14.805 1.20717 14.9999 1.66576 14.9999H18.3324C18.791 14.9999 19.2349 14.805 19.5511 14.4652C19.6325 14.3777 19.6724 14.2593 19.6606 14.1401C19.6483 14.0209 19.5857 13.9127 19.4884 13.8427Z" fill="#138A07"/>
</svg>
