<svg width="24" height="24" viewBox="0 0 24 24" fill="none" xmlns="http://www.w3.org/2000/svg">
<g clip-path="url(#clip0)">
<path d="M14.5369 3.79413C11.5701 0.830312 6.76275 0.831874 3.79796 3.79745C0.832972 6.76321 0.832972 11.5708 3.79796 14.5365C6.76275 17.5021 11.5701 17.5037 14.5369 14.5399C17.4997 11.5706 17.4997 6.76341 14.5369 3.79413ZM4.35663 13.9744C1.70173 11.3193 1.70173 7.01472 4.35663 4.35982C7.01172 1.70493 11.3163 1.70493 13.9712 4.35982C16.6262 7.01472 16.6262 11.3193 13.9713 13.9744C11.3147 16.6255 7.01328 16.6255 4.35663 13.9744Z" fill="#6D727A"/>
<path d="M23.4206 20.5949L18.2134 15.3876L18.4961 15.1049C18.6521 14.9487 18.6521 14.6956 18.4961 14.5394L17.3364 13.3797C19.4047 9.35924 18.2366 4.43159 14.5837 1.76732C10.931 -0.896749 5.88187 -0.503279 2.68588 2.69466C-0.510103 5.89261 -0.900643 10.9419 1.76577 14.5933C4.43199 18.2444 9.36061 19.4096 13.3797 17.3388L14.5394 18.4985C14.6956 18.6547 14.9487 18.6547 15.1049 18.4985L15.3876 18.2157L20.5929 23.4226C21.3748 24.1976 22.636 24.1949 23.4144 23.4164C24.1929 22.638 24.1957 21.3768 23.4206 20.5949ZM3.22581 15.1049C-0.0570761 11.8243 -0.058443 6.50341 3.22288 3.2215C6.504 -0.0606014 11.8249 -0.0606014 15.1062 3.2215C18.3876 6.50341 18.3862 11.8243 15.1033 15.1049C14.9662 15.2422 14.8247 15.3742 14.6786 15.5011C14.2414 15.8826 13.7657 16.2177 13.2592 16.5009C9.97707 18.3222 5.88597 17.7529 3.22581 15.1049ZM14.0994 16.9297C14.117 16.9184 14.1338 16.9061 14.151 16.8949C14.1994 16.8637 14.2467 16.8301 14.2943 16.7981C14.4085 16.7209 14.5214 16.642 14.6317 16.56C14.685 16.5206 14.7383 16.4808 14.7917 16.4401C14.8983 16.357 15.0039 16.271 15.1084 16.1826C15.1541 16.1425 15.2004 16.1062 15.2453 16.0666C15.3904 15.9391 15.5323 15.8079 15.6696 15.6708C15.8067 15.5335 15.9379 15.3908 16.0654 15.2464C16.1054 15.2015 16.1429 15.1553 16.1814 15.11C16.2698 15.0061 16.3558 14.9004 16.439 14.7928C16.4798 14.7395 16.5198 14.6862 16.5588 14.6329C16.6418 14.5218 16.7219 14.4083 16.7988 14.2929C16.8305 14.2463 16.8633 14.2002 16.8937 14.1525C16.9053 14.135 16.9176 14.1182 16.9293 14.1002L17.649 14.8202L14.8202 17.6498L14.0994 16.9297ZM22.8551 22.8571C22.3804 23.3105 21.6331 23.3105 21.1582 22.8571L15.951 17.6498L17.6479 15.9531L22.8551 21.1608C23.3238 21.6293 23.3238 22.389 22.8551 22.8575V22.8571Z" fill="#6D727A"/>
</g>
<defs>
<clipPath id="clip0">
<rect width="24" height="24" fill="white"/>
</clipPath>
</defs>
</svg>
