<svg width="18" height="10" viewBox="0 0 18 10" fill="none" xmlns="http://www.w3.org/2000/svg">
<path d="M0.206225 5.49771C0.206437 5.49792 0.206612 5.49817 0.206858 5.49838L3.88083 9.15463C4.15607 9.42853 4.60125 9.42751 4.87522 9.15224C5.14916 8.877 5.1481 8.43182 4.87287 8.15788L2.40616 5.70313L17.2969 5.70313C17.6852 5.70313 18 5.38834 18 5C18 4.61167 17.6852 4.29688 17.2969 4.29688L2.4062 4.29688L4.87283 1.84213C5.14807 1.56819 5.14912 1.12301 4.87518 0.847768C4.60121 0.57246 4.15599 0.571511 3.88079 0.845378L0.206822 4.50163C0.206612 4.50184 0.206437 4.50208 0.20619 4.5023C-0.0691886 4.77715 -0.0683092 5.22377 0.206225 5.49771Z" fill="white"/>
</svg>
