<svg width="18" height="10" viewBox="0 0 18 10" fill="none" xmlns="http://www.w3.org/2000/svg">
<path d="M17.7938 4.50229C17.7936 4.50208 17.7934 4.50183 17.7931 4.50162L14.1192 0.845373C13.8439 0.57147 13.3988 0.57249 13.1248 0.847763C12.8508 1.123 12.8519 1.56818 13.1271 1.84212L15.5938 4.29687H0.703125C0.314789 4.29687 0 4.61166 0 5C0 5.38833 0.314789 5.70312 0.703125 5.70312H15.5938L13.1272 8.15787C12.8519 8.43181 12.8509 8.87699 13.1248 9.15223C13.3988 9.42754 13.844 9.42849 14.1192 9.15462L17.7932 5.49837C17.7934 5.49816 17.7936 5.49792 17.7938 5.4977C18.0692 5.22285 18.0683 4.77623 17.7938 4.50229Z" fill="white"/>
</svg>
