<svg width="6" height="12" viewBox="0 0 6 12" fill="none" xmlns="http://www.w3.org/2000/svg">
<path d="M3.34251 11.8625C3.34265 11.8624 3.34282 11.8623 3.34297 11.8621L5.8591 9.41278C6.04759 9.22928 6.04689 8.9325 5.85745 8.74985C5.66804 8.56722 5.36168 8.56793 5.17316 8.75142L3.48387 10.3959L3.48387 0.46875C3.48387 0.209859 3.26724 -1.06206e-07 3 -1.16592e-07C2.73276 -1.26978e-07 2.51613 0.209859 2.51613 0.46875L2.51613 10.3959L0.826837 8.75144C0.638321 8.56795 0.331958 8.56725 0.142546 8.74987C-0.0469136 8.93252 -0.0475664 9.22933 0.140901 9.4128L2.65703 11.8621C2.65718 11.8623 2.65735 11.8624 2.65749 11.8625C2.84664 12.0461 3.15399 12.0455 3.34251 11.8625Z" fill="white"/>
</svg>
