<svg width="28" height="24" viewBox="0 0 28 24" fill="none" xmlns="http://www.w3.org/2000/svg">
<path d="M27.6 0C25.7 0 24 1.3 23.5 3.2L23.3 4.1H18.7H14.2H9.4H4.9H1.9C1.3 4.1 0.7 4.4 0.4 4.9C0 5.4 -0.1 6 0.1 6.6L2.3 15.3C2.5 16.2 3.3 16.8 4.2 16.8H6.7H10H13.5H16.9H20L19.6 18.5C19.5 18.5 19.4 18.5 19.3 18.5C18 18.5 16.9 19.5 16.7 20.8H9.5C9.3 19.5 8.2 18.5 6.9 18.5C5.4 18.5 4.2 19.7 4.2 21.2C4.2 22.7 5.4 23.9 6.9 23.9C8.2 23.9 9.3 22.9 9.5 21.6H16.6C16.9 23 18 24 19.3 24C20.8 24 22 22.8 22 21.3C22 20.2 21.4 19.3 20.5 18.8L21.1 16.5V16.3L24.4 3.4C24.8 1.9 26.1 0.8 27.6 0.8C27.8 0.8 28 0.6 28 0.4C28 0.2 27.8 0 27.6 0ZM6.9 23.1C5.9 23.1 5.1 22.3 5.1 21.2C5.1 20.2 5.9 19.3 6.9 19.3C7.9 19.3 8.7 20.1 8.7 21.1C8.7 22.3 7.9 23.1 6.9 23.1ZM21.1 21.3C21.1 22.3 20.3 23.2 19.3 23.2C18.3 23.2 17.5 22.4 17.5 21.3C17.5 20.3 18.3 19.4 19.3 19.4C20.3 19.4 21.1 20.2 21.1 21.3ZM21.3 12H18L18.5 8.9H22.1L21.4 11.6L21.3 12ZM1.5 8.9H5.1L5.6 12H2.3L1.5 8.9ZM6 8.9H9.2L9.4 12H6.4L6 8.9ZM10.1 8.9H13.6L13.4 12H10.3L10.1 8.9ZM14.4 8.9H17.6L17.2 12H14.3L14.4 8.9ZM22.3 8.1H18.6L19.1 5H23.1L22.3 8.1ZM17.7 8.1H14.4L14.6 5H18.2L17.7 8.1ZM13.7 5L13.5 8.1H10L9.9 5H13.7ZM9 5L9.2 8.1H5.8L5.4 5H9ZM1.1 5.4C1.3 5.1 1.6 5 1.9 5H4.5L5 8.1H1.3L0.9 6.4C0.8 6.1 0.9 5.7 1.1 5.4ZM3.1 15.1L2.5 12.9H5.7L6.2 16H4.2C3.7 16 3.2 15.6 3.1 15.1ZM6.6 12.9H9.5L9.6 16H7L6.6 12.9ZM10.4 16L10.2 12.9H13.2V16H10.4ZM14 16L14.2 12.9H17L16.6 16H14ZM17.4 16L17.9 12.9H21.1L20.3 16H17.4Z" fill="#6D727A"/>
</svg>
