<svg width="20" height="20" viewBox="0 0 20 20" fill="none" xmlns="http://www.w3.org/2000/svg">
<path d="M20 11.8753C20 11.3745 19.8008 10.9078 19.4575 10.5636C19.8467 10.1378 20.045 9.56695 19.9908 8.97281C19.8933 7.91363 18.9391 7.08363 17.8175 7.08363H12.67C12.925 6.30945 13.3333 4.89031 13.3333 3.75031C13.3333 1.94281 11.7975 0.416992 10.8333 0.416992C9.96832 0.416992 9.34914 0.904492 9.32332 0.924492C9.22414 1.00367 9.16664 1.12367 9.16664 1.25031V4.07613L6.76582 9.27531L6.66664 9.32613V9.16695C6.66664 8.93695 6.47996 8.75027 6.24996 8.75027H2.08332C0.93418 8.75031 0 9.68449 0 10.8336V17.5003C0 18.6495 0.93418 19.5836 2.08332 19.5836H4.58332C5.48414 19.5836 6.25414 19.0086 6.54414 18.2061C7.2375 18.5628 8.17082 18.7503 8.75 18.7503H16.3992C17.3067 18.7503 18.1009 18.1386 18.2875 17.2953C18.3833 16.8603 18.3275 16.4228 18.1375 16.0428C18.7525 15.7336 19.1667 15.0978 19.1667 14.3753C19.1667 14.0803 19.0992 13.7978 18.9717 13.5428C19.5867 13.2328 20 12.5978 20 11.8753ZM18.2425 12.9036C18.0817 12.9228 17.9458 13.032 17.8942 13.1861C17.8434 13.3403 17.8859 13.5095 18.0042 13.6211C18.2159 13.8203 18.3334 14.0886 18.3334 14.3753C18.3334 14.9011 17.9359 15.3428 17.41 15.4036C17.2492 15.4228 17.1134 15.532 17.0617 15.6861C17.0109 15.8403 17.0534 16.0095 17.1717 16.1211C17.4459 16.3795 17.5559 16.742 17.4734 17.1153C17.3709 17.5803 16.9192 17.917 16.3992 17.917H8.75C8.07332 17.917 6.93832 17.5995 6.545 17.2053C6.42582 17.087 6.24582 17.052 6.09082 17.1153C5.935 17.1795 5.83332 17.332 5.83332 17.5003C5.83332 18.1895 5.2725 18.7503 4.58332 18.7503H2.08332C1.39414 18.7503 0.83332 18.1895 0.83332 17.5003V10.8336C0.83332 10.1445 1.39414 9.58363 2.08332 9.58363H5.83332V10.0003C5.83332 10.1445 5.90832 10.2786 6.03164 10.3553C6.15332 10.4286 6.30664 10.4361 6.43664 10.3728L7.26996 9.95613C7.35414 9.91445 7.42164 9.84445 7.46164 9.75863L9.96164 4.34195C9.98664 4.28695 9.99996 4.22695 9.99996 4.16695V1.47613C10.1733 1.38031 10.4742 1.25031 10.8333 1.25031C11.29 1.25031 12.5 2.38531 12.5 3.75031C12.5 5.21699 11.7017 7.33113 11.6942 7.35199C11.6459 7.47949 11.6625 7.62367 11.74 7.73699C11.8183 7.84949 11.9467 7.91699 12.0833 7.91699H17.8175C18.5125 7.91699 19.1025 8.41449 19.1608 9.04949C19.205 9.52449 18.9766 9.97617 18.5675 10.2287C18.44 10.307 18.3642 10.4487 18.37 10.5995C18.3758 10.7503 18.4625 10.8853 18.5958 10.9545C18.9483 11.1337 19.1666 11.487 19.1666 11.8753C19.1667 12.4011 18.7692 12.8428 18.2425 12.9036Z" fill="#6D727A"/>
</svg>
