<svg width="20" height="20" viewBox="0 0 20 20" fill="none" xmlns="http://www.w3.org/2000/svg">
<path d="M20 8.12469C20 8.62551 19.8008 9.09219 19.4575 9.43637C19.8467 9.86219 20.045 10.433 19.9908 11.0272C19.8933 12.0864 18.9391 12.9164 17.8175 12.9164H12.67C12.925 13.6905 13.3333 15.1097 13.3333 16.2497C13.3333 18.0572 11.7975 19.583 10.8333 19.583C9.96832 19.583 9.34914 19.0955 9.32332 19.0755C9.22414 18.9963 9.16664 18.8763 9.16664 18.7497V15.9239L6.76582 10.7247L6.66664 10.6739V10.833C6.66664 11.063 6.47996 11.2497 6.24996 11.2497H2.08332C0.93418 11.2497 0 10.3155 0 9.16637V2.49969C0 1.35051 0.93418 0.416367 2.08332 0.416367H4.58332C5.48414 0.416367 6.25414 0.991367 6.54414 1.79387C7.2375 1.43719 8.17082 1.24969 8.75 1.24969H16.3992C17.3067 1.24969 18.1009 1.86137 18.2875 2.70469C18.3833 3.13969 18.3275 3.57719 18.1375 3.95719C18.7525 4.26637 19.1667 4.90219 19.1667 5.62469C19.1667 5.91969 19.0992 6.20219 18.9717 6.45719C19.5867 6.76719 20 7.40219 20 8.12469ZM18.2425 7.09637C18.0817 7.07719 17.9458 6.96805 17.8942 6.81387C17.8434 6.65969 17.8859 6.49055 18.0042 6.37887C18.2159 6.17969 18.3334 5.91137 18.3334 5.62469C18.3334 5.09887 17.9359 4.65719 17.41 4.59637C17.2492 4.57719 17.1134 4.46805 17.0617 4.31387C17.0109 4.15969 17.0534 3.99055 17.1717 3.87887C17.4459 3.62055 17.5559 3.25805 17.4734 2.88469C17.3709 2.41969 16.9192 2.08301 16.3992 2.08301H8.75C8.07332 2.08301 6.93832 2.40051 6.545 2.79469C6.42582 2.91301 6.24582 2.94801 6.09082 2.88469C5.935 2.82051 5.83332 2.66801 5.83332 2.49969C5.83332 1.81051 5.2725 1.24969 4.58332 1.24969H2.08332C1.39414 1.24969 0.83332 1.81051 0.83332 2.49969V9.16637C0.83332 9.85555 1.39414 10.4164 2.08332 10.4164H5.83332V9.99969C5.83332 9.85551 5.90832 9.72137 6.03164 9.64469C6.15332 9.57137 6.30664 9.56387 6.43664 9.62719L7.26996 10.0439C7.35414 10.0855 7.42164 10.1555 7.46164 10.2414L9.96164 15.658C9.98664 15.713 9.99996 15.773 9.99996 15.833V18.5239C10.1733 18.6197 10.4742 18.7497 10.8333 18.7497C11.29 18.7497 12.5 17.6147 12.5 16.2497C12.5 14.783 11.7017 12.6689 11.6942 12.648C11.6459 12.5205 11.6625 12.3763 11.74 12.263C11.8183 12.1505 11.9467 12.083 12.0833 12.083H17.8175C18.5125 12.083 19.1025 11.5855 19.1608 10.9505C19.205 10.4755 18.9766 10.0238 18.5675 9.77133C18.44 9.69301 18.3642 9.55133 18.37 9.40051C18.3758 9.24969 18.4625 9.11469 18.5958 9.04551C18.9483 8.86633 19.1666 8.51301 19.1666 8.12469C19.1667 7.59887 18.7692 7.15719 18.2425 7.09637Z" fill="#6D727A"/>
</svg>
