<svg width="16" height="20" viewBox="0 0 16 20" fill="none" xmlns="http://www.w3.org/2000/svg">
<path d="M15.124 1.04867C14.971 0.987 11.3377 -0.435333 8.51066 1.06367C6.27066 2.25267 2.33866 1.36067 1.33366 1.10267V0.333333C1.33366 0.149 1.18466 0 1.00033 0C0.815992 0 0.666992 0.149 0.666992 0.333333V1.33333C0.666992 1.338 0.669326 1.342 0.669659 1.34667C0.669659 1.35067 0.666992 1.354 0.666992 1.358V11V11.358V19.6667C0.666992 19.851 0.815992 20 1.00033 20C1.18466 20 1.33366 19.851 1.33366 19.6667V11.7917C2.09133 11.9807 3.74266 12.3357 5.45633 12.3357C6.64199 12.3357 7.85633 12.1653 8.82333 11.6527C11.374 10.299 14.842 11.654 14.8767 11.6677C14.9797 11.709 15.0957 11.6963 15.1873 11.6337C15.2787 11.572 15.3337 11.4687 15.3337 11.358V1.358C15.3337 1.22167 15.2507 1.09933 15.124 1.04867ZM14.667 10.8883C13.5803 10.5423 10.785 9.85633 8.51066 11.0633C6.27099 12.252 2.34033 11.3607 1.33366 11.1027V11V1.79167C2.61799 2.112 6.46066 2.906 8.82333 1.65267C11.012 0.491667 13.876 1.32433 14.667 1.59233V10.8883Z" fill="#6D727A"/>
</svg>
